<?xml version="1.0" standalone="no"?>
<!DOCTYPE svg PUBLIC "-//W3C//DTD SVG 20010904//EN"
 "http://www.w3.org/TR/2001/REC-SVG-20010904/DTD/svg10.dtd">
<svg version="1.0" xmlns="http://www.w3.org/2000/svg"
 width="1280.000000pt" height="853.000000pt" viewBox="0 0 1280.000000 853.000000"
 preserveAspectRatio="xMidYMid meet">
<metadata>
Created by potrace 1.15, written by Peter Selinger 2001-2017
</metadata>
<g transform="translate(0.000000,853.000000) scale(0.100000,-0.100000)"
fill="#000000" stroke="none">
<path d="M2455 7359 c-96 -22 -166 -51 -161 -66 14 -35 46 -251 46 -308 0 -93
-13 -120 -75 -155 -29 -16 -65 -30 -81 -30 -60 0 -154 60 -319 203 l-40 35
-47 -40 c-26 -21 -65 -61 -88 -88 l-41 -49 91 -108 c92 -109 150 -207 150
-250 0 -35 -57 -128 -87 -142 -40 -18 -168 -14 -303 9 -67 12 -123 20 -125 18
-5 -5 -51 -166 -58 -204 l-6 -32 92 -32 c134 -48 227 -92 270 -129 36 -33 37
-34 37 -106 0 -64 -3 -77 -26 -104 -31 -37 -115 -79 -259 -130 l-110 -39 3
-33 c4 -31 49 -200 56 -207 2 -1 55 6 117 17 178 31 214 34 274 21 51 -11 59
-16 86 -58 16 -26 32 -57 35 -68 15 -55 -43 -159 -165 -299 -39 -44 -71 -83
-71 -86 0 -10 160 -169 171 -169 5 0 54 37 109 83 113 95 202 147 253 147 52
0 126 -46 144 -89 24 -56 11 -209 -32 -397 -4 -19 4 -24 63 -42 69 -22 148
-41 169 -42 6 0 26 43 43 96 43 127 103 246 141 278 26 22 40 26 94 26 57 0
68 -3 98 -30 41 -35 92 -137 139 -273 l33 -98 35 6 c51 9 183 45 198 53 9 6 7
32 -8 113 -29 151 -35 240 -20 294 11 40 20 50 64 76 28 16 66 29 85 29 50 0
133 -50 251 -149 l105 -89 47 40 c26 21 66 61 89 89 l41 49 -38 45 c-107 125
-176 223 -191 273 l-17 53 30 55 c16 31 40 61 54 68 60 31 149 29 348 -10 46
-9 85 -15 87 -12 7 7 53 174 57 207 l3 33 -108 38 c-139 49 -209 84 -252 124
-34 32 -35 36 -35 104 0 60 4 75 24 100 33 38 115 81 259 132 92 34 116 46
113 59 -2 9 -7 32 -11 51 -12 65 -49 170 -59 170 -6 0 -60 -9 -120 -20 -128
-23 -253 -26 -299 -6 -23 10 -40 30 -61 70 -27 53 -28 60 -17 99 17 57 61 125
154 235 l78 92 -21 29 c-11 16 -50 57 -86 90 l-66 60 -106 -89 c-118 -99 -203
-150 -252 -150 -18 0 -56 13 -85 30 -58 33 -75 68 -75 158 0 45 33 262 46 304
4 14 -10 22 -73 41 -43 14 -98 28 -123 32 l-45 6 -34 -98 c-49 -140 -88 -219
-130 -264 -36 -37 -41 -39 -101 -39 -52 0 -69 4 -96 25 -40 31 -99 145 -144
279 -35 106 -32 104 -115 85z m567 -792 c272 -88 460 -315 498 -601 35 -261
-90 -535 -312 -682 -370 -246 -867 -108 -1054 293 -47 100 -66 190 -66 308 2
341 229 623 567 701 93 21 271 12 367 -19z"/>
<path d="M2683 6376 c-167 -41 -312 -178 -363 -344 -27 -87 -27 -217 0 -305
77 -250 355 -407 604 -342 202 53 355 220 386 423 39 251 -128 500 -381 567
-65 18 -175 18 -246 1z"/>
<path d="M7085 7029 c-129 -31 -175 -49 -175 -67 0 -9 10 -64 21 -122 25 -123
30 -281 11 -326 -16 -38 -110 -94 -156 -94 -51 0 -143 52 -251 142 -54 46
-109 91 -122 102 l-24 18 -95 -96 -96 -96 65 -73 c132 -149 186 -232 200 -305
6 -27 0 -46 -29 -97 -28 -52 -42 -66 -71 -76 -49 -16 -241 -5 -358 20 -49 11
-93 17 -97 13 -10 -11 -56 -163 -63 -213 l-7 -47 109 -36 c131 -44 235 -93
283 -134 33 -28 35 -34 40 -107 4 -61 2 -83 -11 -104 -31 -52 -149 -113 -336
-175 -60 -20 -83 -32 -83 -44 0 -19 43 -183 58 -223 l10 -26 129 23 c138 25
281 31 331 13 23 -8 40 -27 67 -75 l36 -65 -15 -52 c-18 -62 -68 -137 -178
-265 l-80 -92 96 -96 96 -96 37 31 c175 145 215 175 267 201 32 17 74 30 93
30 49 0 138 -53 154 -93 21 -48 14 -212 -14 -345 l-23 -113 30 -13 c53 -22
196 -57 218 -54 16 2 28 25 59 113 52 149 102 247 144 284 33 29 41 31 110 31
64 0 77 -3 104 -26 39 -32 107 -168 151 -302 l35 -104 45 6 c25 3 85 18 133
33 l89 27 -7 30 c-43 214 -55 360 -32 425 15 45 104 101 158 101 66 0 157 -57
316 -198 l73 -63 50 42 c50 42 140 141 140 154 0 3 -32 43 -71 88 -129 149
-189 247 -189 309 0 11 16 47 35 79 43 70 70 81 188 80 68 0 254 -28 319 -47
12 -4 21 9 37 58 23 72 54 199 48 204 -1 2 -57 22 -123 45 -146 50 -245 101
-284 146 -27 30 -30 40 -30 103 0 63 3 73 30 103 38 44 135 94 285 148 66 24
121 44 123 45 5 3 -27 135 -49 202 -16 49 -25 62 -37 58 -60 -18 -259 -46
-329 -46 -113 0 -142 13 -182 85 -26 46 -32 66 -27 93 9 57 52 131 131 227 41
50 86 104 101 122 l26 32 -41 49 c-22 26 -65 69 -96 95 l-55 48 -87 -77 c-147
-129 -240 -184 -305 -184 -51 1 -140 59 -155 101 -23 65 -11 211 33 425 5 25
2 32 -13 37 -93 29 -203 57 -223 57 -23 0 -28 -9 -60 -102 -45 -134 -113 -270
-151 -302 -27 -23 -40 -26 -104 -26 -69 0 -77 2 -110 31 -42 37 -98 149 -150
299 -20 57 -37 105 -38 106 -1 1 -38 -7 -82 -17z m575 -851 c273 -68 482 -275
562 -555 32 -111 32 -295 0 -407 -79 -277 -294 -487 -566 -556 -108 -27 -274
-27 -382 0 -512 128 -752 709 -483 1168 55 92 200 230 294 279 193 99 374 122
575 71z"/>
<path d="M7384 5970 c-203 -31 -370 -169 -444 -365 -28 -74 -37 -216 -20 -298
17 -82 81 -204 138 -264 223 -233 572 -237 797 -9 82 83 118 145 145 252 25
98 25 170 0 268 -28 109 -63 170 -150 256 -127 128 -298 187 -466 160z"/>
<path d="M4365 5304 c-78 -19 -188 -54 -199 -65 -5 -4 4 -70 20 -151 35 -179
40 -362 11 -418 -21 -41 -133 -110 -178 -110 -77 0 -182 63 -349 208 -62 53
-118 101 -126 107 -11 7 -41 -17 -129 -105 -63 -63 -115 -119 -115 -123 0 -5
32 -44 72 -86 147 -157 248 -316 248 -392 0 -58 -65 -163 -115 -186 -62 -28
-242 -22 -423 15 l-142 29 -26 -81 c-30 -97 -54 -193 -54 -223 0 -18 15 -26
113 -59 225 -75 357 -144 397 -208 16 -27 20 -50 20 -115 0 -81 0 -81 -41
-126 -50 -55 -176 -118 -349 -176 -69 -23 -129 -46 -134 -50 -15 -13 50 -289
73 -312 5 -5 71 4 147 19 105 21 170 28 264 28 161 1 177 -5 231 -96 38 -65
41 -75 36 -120 -10 -82 -102 -222 -257 -390 l-62 -68 48 -56 c27 -31 80 -85
118 -119 l70 -63 59 51 c209 184 320 256 406 265 43 4 57 0 120 -37 68 -40 71
-44 87 -99 22 -73 14 -208 -21 -382 -14 -69 -25 -133 -25 -142 0 -13 22 -24
83 -43 72 -23 204 -55 226 -55 5 0 30 62 56 138 74 214 138 334 201 373 45 28
174 27 220 -1 63 -40 126 -159 204 -387 23 -68 46 -123 51 -123 22 0 154 32
227 55 60 19 82 30 82 43 0 9 -11 73 -25 142 -35 174 -43 309 -21 382 16 55
19 59 87 99 63 37 77 41 120 37 86 -9 197 -81 406 -265 l59 -51 70 63 c38 34
91 88 118 119 l48 56 -62 68 c-156 168 -248 310 -257 396 -5 38 0 53 36 114
54 91 70 97 231 96 94 0 159 -7 264 -28 112 -22 141 -25 148 -14 27 43 87 294
72 307 -5 4 -65 27 -134 50 -173 58 -299 121 -349 176 l-41 45 0 82 c0 94 10
117 75 168 54 43 155 89 319 146 l138 47 -6 46 c-6 48 -62 249 -74 268 -5 7
-54 0 -147 -19 -177 -37 -357 -44 -420 -15 -50 23 -115 128 -115 186 0 72 74
193 221 363 40 46 79 91 87 100 14 16 5 28 -98 133 -63 63 -118 115 -123 115
-5 0 -39 -28 -75 -61 -100 -92 -235 -194 -297 -225 -89 -43 -128 -43 -207 3
-94 53 -103 75 -102 228 0 88 8 158 29 263 15 81 24 147 19 152 -20 18 -243
80 -290 80 -18 0 -28 -21 -73 -147 -67 -187 -120 -290 -177 -343 l-44 -40 -85
0 -85 0 -44 40 c-57 53 -110 156 -177 343 -59 167 -49 159 -164 131z m720
-1034 c98 -27 202 -74 286 -130 93 -62 225 -202 283 -298 56 -94 110 -244 127
-352 16 -102 6 -285 -20 -385 -89 -336 -358 -602 -697 -687 -126 -31 -332 -31
-458 0 -283 71 -508 256 -637 525 -54 114 -80 220 -86 357 -7 139 7 232 51
363 46 134 114 243 216 347 147 150 297 233 500 276 99 20 333 12 435 -16z"/>
<path d="M4675 4004 c-95 -23 -216 -88 -291 -157 -362 -331 -269 -914 178
-1116 127 -58 268 -74 405 -45 330 68 557 360 540 694 -15 298 -229 557 -517
625 -81 18 -235 18 -315 -1z"/>
<path d="M9285 5050 c-70 -18 -125 -37 -125 -42 0 -2 9 -49 20 -106 23 -116
26 -245 7 -281 -6 -14 -34 -38 -61 -53 -85 -50 -118 -35 -367 170 l-28 24 -49
-42 c-27 -22 -64 -59 -81 -80 l-32 -40 86 -102 c87 -105 135 -185 135 -224 0
-12 -12 -43 -26 -69 -45 -80 -102 -90 -310 -55 -65 11 -124 18 -130 16 -6 -2
-21 -40 -32 -83 -38 -145 -44 -126 59 -162 137 -48 192 -75 238 -116 40 -36
41 -39 41 -100 0 -61 -1 -64 -41 -100 -47 -42 -123 -79 -246 -119 -94 -31 -89
-13 -51 -159 11 -43 26 -81 32 -83 6 -2 65 5 130 16 201 34 262 24 307 -50 15
-25 28 -57 28 -71 2 -44 -55 -140 -139 -237 l-81 -93 41 -49 c23 -27 59 -63
81 -81 45 -35 33 -39 134 47 86 73 151 115 203 130 44 14 47 13 96 -15 28 -15
57 -39 63 -52 19 -36 16 -165 -7 -281 -11 -56 -16 -106 -12 -110 13 -12 192
-60 206 -55 8 3 26 43 41 89 36 106 82 203 116 239 25 27 33 29 96 29 65 0 71
-2 100 -32 37 -39 77 -120 118 -241 l30 -88 40 7 c48 8 167 43 177 52 3 4 -2
50 -13 102 -22 108 -27 242 -11 282 7 16 32 39 62 56 46 26 56 29 93 20 52
-11 118 -54 222 -145 l80 -70 52 46 c28 25 66 63 83 84 l33 38 -45 47 c-103
107 -178 225 -178 279 0 15 14 49 30 75 44 70 111 83 275 53 44 -9 99 -18 122
-21 l42 -7 22 74 c12 41 23 91 23 112 l1 39 -105 37 c-127 45 -176 70 -218
109 -30 28 -32 35 -32 95 0 59 3 68 30 96 37 36 105 70 231 115 74 26 95 38
97 54 3 22 -33 167 -47 191 -7 11 -29 9 -127 -8 -208 -37 -272 -26 -318 51
-14 25 -26 57 -26 72 0 44 53 132 140 236 l80 94 -77 78 c-43 43 -81 78 -86
78 -5 0 -37 -25 -70 -56 -84 -75 -197 -150 -241 -158 -29 -6 -45 -2 -82 20
-68 40 -78 62 -76 163 1 47 10 129 21 181 11 52 16 98 13 102 -10 9 -129 44
-177 52 l-41 7 -23 -73 c-35 -109 -93 -229 -130 -265 -29 -29 -39 -33 -87 -33
-33 0 -64 6 -79 16 -39 25 -82 103 -129 230 -25 66 -50 120 -58 121 -7 1 -44
-6 -83 -17z m500 -705 c226 -57 407 -230 477 -455 33 -106 32 -264 0 -370 -38
-121 -79 -187 -172 -280 -133 -134 -273 -192 -465 -192 -361 0 -655 294 -655
657 0 176 66 333 194 461 45 44 103 93 130 107 46 26 164 70 211 80 50 11 225
6 280 -8z"/>
<path d="M9516 4159 c-72 -18 -174 -80 -228 -138 -233 -254 -127 -650 202
-761 54 -19 81 -21 162 -18 85 4 105 9 173 41 374 178 354 708 -33 858 -64 25
-210 35 -276 18z"/>
<path d="M10747 2905 c-27 -7 -51 -16 -54 -18 -2 -3 3 -51 11 -107 21 -131 13
-169 -43 -194 -57 -26 -87 -13 -204 87 l-59 50 -55 -56 -56 -55 57 -69 c31
-37 66 -88 78 -112 l21 -43 -21 -44 c-18 -36 -27 -44 -59 -50 -34 -6 -162 6
-220 22 -20 5 -24 0 -38 -52 -9 -33 -19 -67 -21 -77 -4 -11 1 -19 13 -23 188
-67 233 -98 233 -161 0 -26 -7 -47 -22 -63 -23 -24 -115 -69 -185 -90 -46 -14
-47 -17 -18 -115 13 -45 5 -44 161 -30 105 10 127 4 154 -42 21 -35 21 -38 4
-81 -9 -24 -43 -76 -75 -114 l-59 -70 28 -33 c15 -18 39 -43 54 -55 l28 -21
67 54 c111 89 149 102 204 70 45 -27 54 -76 35 -192 -9 -52 -13 -98 -9 -102 9
-8 110 -39 129 -39 6 0 24 34 39 75 16 42 41 96 57 121 l28 45 57 -3 c53 -3
59 -6 80 -37 13 -19 37 -72 55 -118 l32 -83 35 6 c20 4 52 12 71 19 40 14 40
15 22 139 -15 98 -5 144 37 169 16 9 40 17 53 17 31 0 97 -39 163 -96 l54 -46
28 22 c15 12 41 37 56 55 l28 34 -34 38 c-57 65 -89 111 -102 150 -11 33 -11
42 6 75 24 47 47 53 153 43 153 -14 148 -15 161 30 20 69 25 105 14 105 -28 0
-175 66 -205 92 -28 25 -34 37 -34 70 0 65 44 95 233 162 12 4 17 12 13 23 -2
10 -12 44 -20 76 -9 31 -18 57 -19 57 -1 0 -37 -7 -80 -15 -142 -27 -190 -18
-222 44 -24 48 -3 94 94 209 l45 53 -52 51 c-59 60 -58 60 -156 -22 -79 -66
-115 -78 -167 -55 -56 26 -64 63 -44 196 8 56 14 103 12 105 -6 6 -113 34
-129 34 -10 0 -21 -8 -25 -17 -66 -190 -89 -223 -157 -223 -69 0 -94 35 -159
223 -7 20 -32 21 -100 2z m378 -477 c68 -17 154 -69 205 -125 220 -240 120
-618 -191 -723 -53 -19 -79 -21 -156 -18 -79 5 -102 10 -168 41 -178 85 -280
277 -247 468 45 264 293 422 557 357z"/>
<path d="M10935 2311 c-184 -48 -285 -231 -228 -412 24 -75 117 -169 191 -193
259 -86 496 157 401 411 -26 68 -92 139 -162 171 -53 25 -153 36 -202 23z"/>
</g>
</svg>
